<?xml version="1.0" encoding="UTF-8" standalone="no"?>
<!DOCTYPE svg PUBLIC "-//W3C//DTD SVG 1.1//EN" "http://www.w3.org/Graphics/SVG/1.1/DTD/svg11.dtd"><svg width="100%"
    height="100%" viewBox="0 0 124 132" version="1.1" xmlns="http://www.w3.org/2000/svg"
    xmlns:xlink="http://www.w3.org/1999/xlink" xml:space="preserve" xmlns:serif="http://www.serif.com/"
    style="fill-rule:evenodd;clip-rule:evenodd;stroke-linejoin:round;stroke-miterlimit:2;">
    <path id="eight-two"
        d="M124,0.5l0,115c0,8.831 -12.098,16 -27,16c-14.902,0 -27,-7.169 -27,-16c0,-8.831 12.098,-16 27,-16c7.406,0 14.12,1.771 19,4.637l-0,-87.637l-62,-0l0,99c0,8.831 -12.098,16 -27,16c-14.902,0 -27,-7.169 -27,-16c0,-8.831 12.098,-16 27,-16c7.406,0 14.12,1.771 19,4.637l-0,-103.637l78,0Z" />
</svg>