<?xml version="1.0" encoding="UTF-8" standalone="no"?>
<!DOCTYPE svg PUBLIC "-//W3C//DTD SVG 1.1//EN" "http://www.w3.org/Graphics/SVG/1.1/DTD/svg11.dtd"><svg width="100%"
    height="100%" viewBox="0 0 55 126" version="1.1" xmlns="http://www.w3.org/2000/svg"
    xmlns:xlink="http://www.w3.org/1999/xlink" xml:space="preserve" xmlns:serif="http://www.serif.com/"
    style="fill-rule:evenodd;clip-rule:evenodd;stroke-linejoin:round;stroke-miterlimit:2;">
    <path id="half"
        d="M54.165,107.536c0.097,0.551 0.147,1.11 0.147,1.676c0,8.831 -12.098,16 -27,16c-14.902,-0 -27,-7.169 -27,-16c0,-8.831 12.098,-16 27,-16c7.332,-0 13.985,1.735 18.853,4.551l0,-97.331l8,-0l0,107.104Zm-1,0c0,0.058 0.006,0.116 0.016,0.174c0.086,0.493 0.131,0.994 0.131,1.502c0,3.25 -1.826,6.232 -4.841,8.669c-4.771,3.856 -12.48,6.331 -21.159,6.331c-8.679,-0 -16.388,-2.475 -21.159,-6.331c-3.015,-2.437 -4.841,-5.419 -4.841,-8.669c0,-3.251 1.826,-6.232 4.841,-8.669c4.771,-3.856 12.48,-6.331 21.159,-6.331c7.136,-0 13.614,1.676 18.353,4.417c0.309,0.179 0.691,0.179 1,0c0.31,-0.178 0.5,-0.509 0.5,-0.866l0,-96.331c0,-0 6,-0 6,-0c0,-0 0,106.104 0,106.104Z" />
</svg>